<svg width="193" height="28" viewBox="0 0 193 28" fill="none" xmlns="http://www.w3.org/2000/svg">
    <path d="M0 2.4C0 1.07452 1.07452 0 2.4 0H19.2C20.5255 0 21.6 1.07452 21.6 2.4V22.8H2.4C1.07452 22.8 0 21.7255 0 20.4V2.4Z" fill="#3863F1"/>
    <path fill-rule="evenodd" clip-rule="evenodd" d="M15.1999 5.2002C10.3398 5.2002 6.3999 9.14009 6.3999 14.0002C6.3999 18.8603 10.3398 22.8002 15.1999 22.8002H21.5999V17.2H15.2001C13.4328 17.2 12.0001 15.7673 12.0001 14C12.0001 12.2327 13.4328 10.8 15.2001 10.8H21.5999V5.2002H15.1999Z" fill="white"/>
    <path fill-rule="evenodd" clip-rule="evenodd" d="M25.5999 5.2002H21.5999V10.8H15.2C13.4327 10.8 12 12.2327 12 14C12 15.7673 13.4327 17.2 15.2 17.2H21.5999V22.8002L6.3999 22.8002V25.6002C6.3999 26.9257 7.47442 28.0002 8.79991 28.0002H25.5999C26.9254 28.0002 27.9999 26.9257 27.9999 25.6002V7.6002C27.9999 6.27471 26.9254 5.2002 25.5999 5.2002Z" fill="#31BC98"/>
    <path d="M45.1535 21.24C43.6735 21.24 42.4135 20.9867 41.3735 20.48C40.3468 19.96 39.5668 19.1733 39.0335 18.12C38.5002 17.0667 38.2335 15.7333 38.2335 14.12C38.2335 11.7467 38.8268 9.97333 40.0135 8.8C41.2135 7.61333 42.9268 7.02 45.1535 7.02C46.3935 7.02 47.4935 7.23333 48.4535 7.66C49.4135 8.07333 50.1602 8.7 50.6935 9.54C51.2402 10.3667 51.5135 11.4 51.5135 12.64H48.0135C48.0135 12.0533 47.8935 11.5533 47.6535 11.14C47.4268 10.7133 47.1002 10.3867 46.6735 10.16C46.2602 9.93333 45.7535 9.82 45.1535 9.82C44.4068 9.82 43.7935 9.97333 43.3135 10.28C42.8335 10.5867 42.4802 11.0267 42.2535 11.6C42.0268 12.1733 41.9135 12.8667 41.9135 13.68V14.58C41.9135 15.3933 42.0268 16.0933 42.2535 16.68C42.4802 17.2533 42.8268 17.6933 43.2935 18C43.7735 18.2933 44.3868 18.44 45.1335 18.44C45.7735 18.44 46.3135 18.3333 46.7535 18.12C47.2068 17.9067 47.5468 17.5933 47.7735 17.18C48.0135 16.7533 48.1335 16.2467 48.1335 15.66H51.5135C51.5135 16.9 51.2468 17.9333 50.7135 18.76C50.1935 19.5867 49.4535 20.2067 48.4935 20.62C47.5468 21.0333 46.4335 21.24 45.1535 21.24ZM58.5626 21.24C57.3892 21.24 56.3826 21.04 55.5426 20.64C54.7159 20.24 54.0759 19.6333 53.6226 18.82C53.1826 17.9933 52.9626 16.96 52.9626 15.72C52.9626 14.48 53.1826 13.4533 53.6226 12.64C54.0759 11.8267 54.7159 11.22 55.5426 10.82C56.3826 10.42 57.3892 10.22 58.5626 10.22C59.7492 10.22 60.7559 10.42 61.5826 10.82C62.4226 11.22 63.0626 11.8267 63.5026 12.64C63.9559 13.4533 64.1826 14.48 64.1826 15.72C64.1826 16.96 63.9559 17.9933 63.5026 18.82C63.0626 19.6333 62.4226 20.24 61.5826 20.64C60.7559 21.04 59.7492 21.24 58.5626 21.24ZM58.5626 18.86C59.1092 18.86 59.5492 18.7533 59.8826 18.54C60.2292 18.3267 60.4759 18.02 60.6226 17.62C60.7826 17.2067 60.8626 16.7 60.8626 16.1V15.36C60.8626 14.76 60.7826 14.2533 60.6226 13.84C60.4759 13.4267 60.2292 13.12 59.8826 12.92C59.5492 12.7067 59.1092 12.6 58.5626 12.6C58.0292 12.6 57.5892 12.7067 57.2426 12.92C56.9092 13.12 56.6626 13.4267 56.5026 13.84C56.3559 14.2533 56.2826 14.76 56.2826 15.36V16.1C56.2826 16.7 56.3559 17.2067 56.5026 17.62C56.6626 18.02 56.9092 18.3267 57.2426 18.54C57.5892 18.7533 58.0292 18.86 58.5626 18.86ZM66.0079 21V10.46H68.7079L68.9479 11.96H69.0879C69.3279 11.6 69.6145 11.2867 69.9479 11.02C70.2945 10.7533 70.6745 10.5533 71.0879 10.42C71.5012 10.2867 71.9412 10.22 72.4079 10.22C73.1279 10.22 73.7412 10.3667 74.2479 10.66C74.7545 10.94 75.1412 11.3733 75.4079 11.96H75.5479C75.7879 11.6 76.0745 11.2867 76.4079 11.02C76.7545 10.7533 77.1345 10.5533 77.5479 10.42C77.9745 10.2867 78.4145 10.22 78.8679 10.22C79.6012 10.22 80.2212 10.36 80.7279 10.64C81.2345 10.9067 81.6212 11.32 81.8879 11.88C82.1679 12.4267 82.3079 13.1267 82.3079 13.98V21H79.0279V14.48C79.0279 14.1867 78.9945 13.94 78.9279 13.74C78.8612 13.5267 78.7679 13.3533 78.6479 13.22C78.5279 13.0733 78.3745 12.9667 78.1879 12.9C78.0012 12.8333 77.8012 12.8 77.5879 12.8C77.2412 12.8 76.9279 12.8933 76.6479 13.08C76.3812 13.2533 76.1745 13.4933 76.0279 13.8C75.8812 14.0933 75.8079 14.44 75.8079 14.84V21H72.5279V14.48C72.5279 14.1867 72.4945 13.94 72.4279 13.74C72.3612 13.5267 72.2679 13.3533 72.1479 13.22C72.0279 13.0733 71.8745 12.9667 71.6879 12.9C71.5012 12.8333 71.3012 12.8 71.0879 12.8C70.7412 12.8 70.4279 12.8933 70.1479 13.08C69.8812 13.2533 69.6679 13.4933 69.5079 13.8C69.3612 14.0933 69.2879 14.44 69.2879 14.84V21H66.0079ZM84.8483 21V7.26H92.4083C93.3417 7.26 94.135 7.45333 94.7883 7.84C95.455 8.21333 95.9617 8.74 96.3083 9.42C96.6683 10.0867 96.8483 10.8733 96.8483 11.78C96.8483 12.7133 96.6617 13.52 96.2883 14.2C95.9283 14.88 95.4083 15.4133 94.7283 15.8C94.0617 16.1733 93.2617 16.36 92.3283 16.36H88.4283V21H84.8483ZM88.4283 13.6H91.4883C92.0483 13.6 92.475 13.4467 92.7683 13.14C93.0617 12.82 93.2083 12.38 93.2083 11.82C93.2083 11.42 93.1417 11.0933 93.0083 10.84C92.8883 10.5867 92.7017 10.3933 92.4483 10.26C92.195 10.1133 91.875 10.04 91.4883 10.04H88.4283V13.6ZM98.6632 21V7.26H104.403C105.897 7.26 107.157 7.50667 108.183 8C109.223 8.49333 110.01 9.24667 110.543 10.26C111.09 11.26 111.363 12.5467 111.363 14.12C111.363 15.68 111.09 16.9733 110.543 18C110.01 19.0133 109.223 19.7667 108.183 20.26C107.157 20.7533 105.897 21 104.403 21H98.6632ZM102.243 18.2H104.363C104.923 18.2 105.41 18.12 105.823 17.96C106.237 17.8 106.583 17.5667 106.863 17.26C107.143 16.9533 107.35 16.5733 107.483 16.12C107.617 15.6667 107.683 15.1467 107.683 14.56V13.72C107.683 13.12 107.617 12.5933 107.483 12.14C107.35 11.6867 107.143 11.3067 106.863 11C106.583 10.6933 106.237 10.46 105.823 10.3C105.41 10.14 104.923 10.06 104.363 10.06H102.243V18.2ZM113.611 21V7.26H124.151V10.06H117.191V13.02H123.311V15.76H117.191V21H113.611ZM126.273 21V7.26H129.853V13.36L135.293 7.26H139.733L134.613 12.88L139.833 21H135.593L132.133 15.32L129.853 17.42V21H126.273ZM141.254 9.04V6.52H144.534V9.04H141.254ZM141.254 21V10.46H144.534V21H141.254ZM150.566 21.24C149.886 21.24 149.306 21.14 148.826 20.94C148.359 20.7267 148.006 20.4133 147.766 20C147.539 19.5867 147.426 19.0867 147.426 18.5V12.84H146.046V10.46H147.526L148.206 7.38H150.686V10.46H152.746V12.84H150.686V17.7C150.686 18.0733 150.759 18.36 150.906 18.56C151.052 18.76 151.319 18.86 151.706 18.86H152.746V20.9C152.572 20.9533 152.352 21.0067 152.086 21.06C151.832 21.1267 151.572 21.1733 151.306 21.2C151.039 21.2267 150.792 21.24 150.566 21.24ZM156.97 21L162.13 7.26H166.43L171.59 21H167.77L166.95 18.62H161.47L160.65 21H156.97ZM162.33 15.94H166.07L165.09 13.04C165.037 12.8933 164.97 12.7133 164.89 12.5C164.823 12.2733 164.75 12.04 164.67 11.8C164.603 11.5467 164.537 11.2933 164.47 11.04C164.403 10.7867 164.337 10.5667 164.27 10.38H164.13C164.077 10.6333 163.997 10.92 163.89 11.24C163.797 11.56 163.697 11.88 163.59 12.2C163.497 12.52 163.41 12.8 163.33 13.04L162.33 15.94ZM173.082 21V7.26H180.642C181.575 7.26 182.369 7.45333 183.022 7.84C183.689 8.21333 184.195 8.74 184.542 9.42C184.902 10.0867 185.082 10.8733 185.082 11.78C185.082 12.7133 184.895 13.52 184.522 14.2C184.162 14.88 183.642 15.4133 182.962 15.8C182.295 16.1733 181.495 16.36 180.562 16.36H176.662V21H173.082ZM176.662 13.6H179.722C180.282 13.6 180.709 13.4467 181.002 13.14C181.295 12.82 181.442 12.38 181.442 11.82C181.442 11.42 181.375 11.0933 181.242 10.84C181.122 10.5867 180.935 10.3933 180.682 10.26C180.429 10.1133 180.109 10.04 179.722 10.04H176.662V13.6ZM186.897 21V7.26H190.477V21H186.897Z" fill="white"/>
    </svg>
    